<svg xmlns="http://www.w3.org/2000/svg" xmlns:xlink="http://www.w3.org/1999/xlink" width="300" zoomAndPan="magnify" viewBox="0 0 224.87999 44.999999" height="60" preserveAspectRatio="xMidYMid meet" version="1.0"><defs><g/><clipPath id="1ecdaa918f"><path d="M 2.96875 1.769531 L 44.347656 1.769531 L 44.347656 43.148438 L 2.96875 43.148438 Z M 2.96875 1.769531 " clip-rule="nonzero"/></clipPath><clipPath id="0ddd7fab2d"><path d="M 29 5 L 48 5 L 48 36 L 29 36 Z M 29 5 " clip-rule="nonzero"/></clipPath><clipPath id="07bb384d12"><path d="M 48.296875 34.984375 L 30.566406 35.421875 L 29.835938 5.875 L 47.566406 5.433594 Z M 48.296875 34.984375 " clip-rule="nonzero"/></clipPath><clipPath id="ef31d1e160"><path d="M 30.484375 35.421875 L 48.210938 34.984375 L 47.480469 5.4375 L 29.753906 5.875 Z M 30.484375 35.421875 " clip-rule="nonzero"/></clipPath><clipPath id="1c6033e9c3"><path d="M 15.277344 9.214844 L 41.609375 9.214844 L 41.609375 31.25 L 15.277344 31.25 Z M 15.277344 9.214844 " clip-rule="nonzero"/></clipPath></defs><g clip-path="url(#1ecdaa918f)"><path fill="#0080ff" d="M 44.421875 22.496094 C 44.421875 23.175781 44.390625 23.851562 44.324219 24.527344 C 44.257812 25.203125 44.15625 25.875 44.023438 26.539062 C 43.890625 27.207031 43.726562 27.863281 43.53125 28.515625 C 43.332031 29.164062 43.105469 29.800781 42.84375 30.429688 C 42.585938 31.054688 42.296875 31.667969 41.976562 32.269531 C 41.65625 32.867188 41.308594 33.449219 40.929688 34.011719 C 40.554688 34.578125 40.148438 35.121094 39.71875 35.644531 C 39.289062 36.171875 38.832031 36.671875 38.351562 37.152344 C 37.871094 37.632812 37.371094 38.089844 36.84375 38.519531 C 36.320312 38.949219 35.777344 39.355469 35.210938 39.730469 C 34.648438 40.109375 34.066406 40.457031 33.464844 40.777344 C 32.867188 41.097656 32.253906 41.386719 31.628906 41.648438 C 31 41.90625 30.363281 42.136719 29.710938 42.332031 C 29.0625 42.527344 28.40625 42.695312 27.738281 42.824219 C 27.074219 42.957031 26.402344 43.058594 25.726562 43.125 C 25.050781 43.191406 24.375 43.222656 23.695312 43.222656 C 23.015625 43.222656 22.339844 43.191406 21.664062 43.125 C 20.988281 43.058594 20.316406 42.957031 19.652344 42.824219 C 18.988281 42.695312 18.328125 42.527344 17.679688 42.332031 C 17.03125 42.136719 16.390625 41.90625 15.765625 41.648438 C 15.136719 41.386719 14.523438 41.097656 13.925781 40.777344 C 13.328125 40.457031 12.746094 40.109375 12.179688 39.730469 C 11.617188 39.355469 11.070312 38.949219 10.546875 38.519531 C 10.023438 38.089844 9.519531 37.632812 9.039062 37.152344 C 8.558594 36.671875 8.105469 36.171875 7.671875 35.644531 C 7.242188 35.121094 6.839844 34.578125 6.460938 34.011719 C 6.085938 33.449219 5.738281 32.867188 5.417969 32.269531 C 5.097656 31.667969 4.804688 31.054688 4.546875 30.429688 C 4.285156 29.800781 4.058594 29.164062 3.863281 28.515625 C 3.664062 27.863281 3.5 27.207031 3.367188 26.539062 C 3.234375 25.875 3.136719 25.203125 3.070312 24.527344 C 3.003906 23.851562 2.96875 23.175781 2.96875 22.496094 C 2.96875 21.820312 3.003906 21.140625 3.070312 20.464844 C 3.136719 19.789062 3.234375 19.121094 3.367188 18.453125 C 3.5 17.789062 3.664062 17.128906 3.863281 16.480469 C 4.058594 15.832031 4.285156 15.191406 4.546875 14.566406 C 4.804688 13.9375 5.097656 13.324219 5.417969 12.726562 C 5.738281 12.128906 6.085938 11.546875 6.460938 10.980469 C 6.839844 10.417969 7.242188 9.871094 7.671875 9.347656 C 8.105469 8.824219 8.558594 8.320312 9.039062 7.839844 C 9.519531 7.359375 10.023438 6.90625 10.546875 6.476562 C 11.070312 6.042969 11.617188 5.640625 12.179688 5.261719 C 12.746094 4.886719 13.328125 4.539062 13.925781 4.21875 C 14.523438 3.898438 15.136719 3.609375 15.765625 3.347656 C 16.390625 3.089844 17.03125 2.859375 17.679688 2.664062 C 18.328125 2.464844 18.988281 2.300781 19.652344 2.167969 C 20.316406 2.035156 20.988281 1.9375 21.664062 1.871094 C 22.339844 1.804688 23.015625 1.769531 23.695312 1.769531 C 24.375 1.769531 25.050781 1.804688 25.726562 1.871094 C 26.402344 1.9375 27.074219 2.035156 27.738281 2.167969 C 28.40625 2.300781 29.0625 2.464844 29.710938 2.664062 C 30.363281 2.859375 31 3.089844 31.628906 3.347656 C 32.253906 3.609375 32.867188 3.898438 33.464844 4.21875 C 34.066406 4.539062 34.648438 4.886719 35.210938 5.261719 C 35.777344 5.640625 36.320312 6.042969 36.84375 6.476562 C 37.371094 6.90625 37.871094 7.359375 38.351562 7.839844 C 38.832031 8.320312 39.289062 8.824219 39.71875 9.347656 C 40.148438 9.871094 40.554688 10.417969 40.929688 10.980469 C 41.308594 11.546875 41.65625 12.128906 41.976562 12.726562 C 42.296875 13.324219 42.585938 13.9375 42.84375 14.566406 C 43.105469 15.191406 43.332031 15.832031 43.53125 16.480469 C 43.726562 17.128906 43.890625 17.789062 44.023438 18.453125 C 44.15625 19.121094 44.257812 19.789062 44.324219 20.464844 C 44.390625 21.140625 44.421875 21.820312 44.421875 22.496094 Z M 44.421875 22.496094 " fill-opacity="1" fill-rule="nonzero"/></g><g clip-path="url(#0ddd7fab2d)"><g clip-path="url(#07bb384d12)"><g clip-path="url(#ef31d1e160)"><path fill="#0080ff" d="M 30.484375 35.40625 L 30.121094 20.542969 L 29.757812 5.683594 C 35.691406 5.546875 41.628906 5.410156 47.5625 5.269531 C 41.867188 15.316406 36.175781 25.359375 30.484375 35.40625 " fill-opacity="1" fill-rule="nonzero"/></g></g></g><g clip-path="url(#1c6033e9c3)"><path fill="#ffffff" d="M 15.277344 22.089844 L 18.285156 18.160156 L 22.171875 23.886719 C 22.171875 23.886719 28.335938 11.894531 41.449219 9.222656 C 35.558594 12.128906 25.136719 23.78125 23.335938 31.414062 C 18.335938 24.8125 15.277344 22.089844 15.277344 22.089844 " fill-opacity="1" fill-rule="nonzero"/></g><g fill="#ffffff" fill-opacity="1"><g transform="translate(54.208625, 29.621197)"><g><path d="M 7.734375 -12.046875 L 7.734375 0 L 4.40625 0 L 4.40625 -12.046875 L 0.109375 -12.046875 L 0.109375 -15.0625 L 12.03125 -15.0625 L 12.03125 -12.046875 Z M 7.734375 -12.046875 "/></g></g></g><g fill="#ffffff" fill-opacity="1"><g transform="translate(66.345954, 29.621197)"><g><path d="M 9.53125 -5.765625 L 7.625 -11.125 L 5.71875 -5.765625 Z M 15.15625 0 L 11.59375 0 L 10.5 -3.03125 L 4.765625 -3.03125 L 3.671875 0 L 0.109375 0 L 6.21875 -15.0625 L 9.046875 -15.0625 Z M 15.15625 0 "/></g></g></g><g fill="#ffffff" fill-opacity="1"><g transform="translate(81.606208, 29.621197)"><g><path d="M 7.171875 -2.34375 C 7.523438 -2.34375 7.910156 -2.398438 8.328125 -2.515625 C 8.742188 -2.628906 9.101562 -2.8125 9.40625 -3.0625 C 9.707031 -3.320312 9.859375 -3.675781 9.859375 -4.125 C 9.859375 -4.53125 9.695312 -4.859375 9.375 -5.109375 C 9.0625 -5.367188 8.644531 -5.578125 8.125 -5.734375 C 7.613281 -5.898438 7.050781 -6.050781 6.4375 -6.1875 C 5.820312 -6.332031 5.203125 -6.503906 4.578125 -6.703125 C 3.960938 -6.898438 3.394531 -7.160156 2.875 -7.484375 C 2.363281 -7.804688 1.945312 -8.226562 1.625 -8.75 C 1.3125 -9.269531 1.15625 -9.925781 1.15625 -10.71875 C 1.15625 -11.5 1.316406 -12.175781 1.640625 -12.75 C 1.960938 -13.320312 2.394531 -13.796875 2.9375 -14.171875 C 3.476562 -14.546875 4.082031 -14.820312 4.75 -15 C 5.425781 -15.1875 6.101562 -15.28125 6.78125 -15.28125 C 7.8125 -15.28125 8.773438 -15.117188 9.671875 -14.796875 C 10.578125 -14.472656 11.3125 -13.957031 11.875 -13.25 C 12.445312 -12.550781 12.75 -11.628906 12.78125 -10.484375 L 9.578125 -10.484375 C 9.484375 -11.265625 9.207031 -11.804688 8.75 -12.109375 C 8.289062 -12.410156 7.648438 -12.5625 6.828125 -12.5625 C 6.515625 -12.5625 6.179688 -12.507812 5.828125 -12.40625 C 5.484375 -12.300781 5.191406 -12.132812 4.953125 -11.90625 C 4.710938 -11.675781 4.59375 -11.367188 4.59375 -10.984375 C 4.59375 -10.597656 4.75 -10.296875 5.0625 -10.078125 C 5.375 -9.859375 5.789062 -9.675781 6.3125 -9.53125 C 6.832031 -9.382812 7.398438 -9.242188 8.015625 -9.109375 C 8.640625 -8.972656 9.257812 -8.804688 9.875 -8.609375 C 10.488281 -8.421875 11.050781 -8.160156 11.5625 -7.828125 C 12.082031 -7.492188 12.5 -7.0625 12.8125 -6.53125 C 13.132812 -6 13.296875 -5.320312 13.296875 -4.5 C 13.296875 -3.613281 13.117188 -2.859375 12.765625 -2.234375 C 12.410156 -1.617188 11.929688 -1.117188 11.328125 -0.734375 C 10.734375 -0.359375 10.0625 -0.0820312 9.3125 0.09375 C 8.570312 0.269531 7.816406 0.359375 7.046875 0.359375 C 5.941406 0.359375 4.90625 0.171875 3.9375 -0.203125 C 2.96875 -0.585938 2.179688 -1.171875 1.578125 -1.953125 C 0.984375 -2.734375 0.679688 -3.738281 0.671875 -4.96875 L 4.03125 -4.96875 C 4.070312 -4.0625 4.398438 -3.394531 5.015625 -2.96875 C 5.640625 -2.550781 6.359375 -2.34375 7.171875 -2.34375 Z M 7.171875 -2.34375 "/></g></g></g><g fill="#ffffff" fill-opacity="1"><g transform="translate(95.559706, 29.621197)"><g><path d="M 4.65625 -6.734375 L 4.65625 0 L 1.328125 0 L 1.328125 -15.0625 L 4.65625 -15.0625 L 4.65625 -8.328125 L 9.421875 -15.0625 L 13.671875 -15.0625 L 7.890625 -7.53125 L 13.890625 0 L 9.421875 0 Z M 4.65625 -6.734375 "/></g></g></g><g fill="#ffffff" fill-opacity="1"><g transform="translate(109.225276, 29.621197)"><g/></g></g><g fill="#ffffff" fill-opacity="1"><g transform="translate(114.762383, 29.621197)"><g><path d="M 20.125 0 L 16.46875 0 L 14.6875 -10.390625 L 11.75 0 L 8.484375 0 L 5.53125 -10.390625 L 3.765625 0 L 0.109375 0 L 3.03125 -15.0625 L 6.984375 -15.0625 L 10.125 -4.5 L 13.25 -15.0625 L 17.1875 -15.0625 Z M 20.125 0 "/></g></g></g><g fill="#ffffff" fill-opacity="1"><g transform="translate(134.983886, 29.621197)"><g><path d="M 9.53125 -5.765625 L 7.625 -11.125 L 5.71875 -5.765625 Z M 15.15625 0 L 11.59375 0 L 10.5 -3.03125 L 4.765625 -3.03125 L 3.671875 0 L 0.109375 0 L 6.21875 -15.0625 L 9.046875 -15.0625 Z M 15.15625 0 "/></g></g></g><g fill="#ffffff" fill-opacity="1"><g transform="translate(150.24414, 29.621197)"><g><path d="M 13.15625 0 L 9.84375 0 L 4.65625 -9.390625 L 4.65625 0 L 1.328125 0 L 1.328125 -15.0625 L 4.65625 -15.0625 L 9.84375 -5.671875 L 9.84375 -15.0625 L 13.15625 -15.0625 Z M 13.15625 0 "/></g></g></g><g fill="#ffffff" fill-opacity="1"><g transform="translate(164.729196, 29.621197)"><g><path d="M 9.53125 -5.765625 L 7.625 -11.125 L 5.71875 -5.765625 Z M 15.15625 0 L 11.59375 0 L 10.5 -3.03125 L 4.765625 -3.03125 L 3.671875 0 L 0.109375 0 L 6.21875 -15.0625 L 9.046875 -15.0625 Z M 15.15625 0 "/></g></g></g><g fill="#ffffff" fill-opacity="1"><g transform="translate(179.989449, 29.621197)"><g><path d="M 8.859375 -12.1875 C 8.066406 -12.1875 7.335938 -11.972656 6.671875 -11.546875 C 6.003906 -11.117188 5.46875 -10.550781 5.0625 -9.84375 C 4.664062 -9.132812 4.46875 -8.347656 4.46875 -7.484375 C 4.46875 -6.640625 4.664062 -5.859375 5.0625 -5.140625 C 5.46875 -4.429688 6.003906 -3.863281 6.671875 -3.4375 C 7.335938 -3.007812 8.066406 -2.796875 8.859375 -2.796875 C 9.347656 -2.796875 9.863281 -2.863281 10.40625 -3 C 10.945312 -3.144531 11.445312 -3.414062 11.90625 -3.8125 C 12.375 -4.207031 12.738281 -4.78125 13 -5.53125 L 9.171875 -5.53125 L 9.171875 -8.046875 L 16.59375 -8.046875 L 16.59375 -7.53125 C 16.59375 -6.46875 16.394531 -5.46875 16 -4.53125 C 15.601562 -3.59375 15.046875 -2.765625 14.328125 -2.046875 C 13.617188 -1.328125 12.800781 -0.769531 11.875 -0.375 C 10.945312 0.0195312 9.941406 0.21875 8.859375 0.21875 C 7.796875 0.21875 6.796875 0.015625 5.859375 -0.390625 C 4.921875 -0.796875 4.097656 -1.351562 3.390625 -2.0625 C 2.679688 -2.769531 2.125 -3.59375 1.71875 -4.53125 C 1.3125 -5.46875 1.109375 -6.46875 1.109375 -7.53125 C 1.109375 -8.59375 1.3125 -9.59375 1.71875 -10.53125 C 2.125 -11.46875 2.679688 -12.289062 3.390625 -13 C 4.097656 -13.707031 4.921875 -14.265625 5.859375 -14.671875 C 6.796875 -15.078125 7.796875 -15.28125 8.859375 -15.28125 C 9.972656 -15.28125 11.023438 -15.054688 12.015625 -14.609375 C 13.003906 -14.160156 13.863281 -13.539062 14.59375 -12.75 C 15.332031 -11.957031 15.875 -11.039062 16.21875 -10 L 12.5625 -10 C 12.195312 -10.789062 11.671875 -11.351562 10.984375 -11.6875 C 10.304688 -12.019531 9.597656 -12.1875 8.859375 -12.1875 Z M 8.859375 -12.1875 "/></g></g></g><g fill="#ffffff" fill-opacity="1"><g transform="translate(197.3538, 29.621197)"><g><path d="M 10.0625 -3.015625 L 10.0625 0 L 1.328125 0 L 1.328125 -15.0625 L 10.0625 -15.0625 L 10.0625 -12.046875 L 4.65625 -12.046875 L 4.65625 -9.0625 L 9.84375 -9.0625 L 9.84375 -6.046875 L 4.65625 -6.046875 L 4.65625 -3.015625 Z M 10.0625 -3.015625 "/></g></g></g><g fill="#ffffff" fill-opacity="1"><g transform="translate(208.738086, 29.621197)"><g><path d="M 4.65625 -5.390625 L 4.65625 0 L 1.328125 0 L 1.328125 -15.0625 L 6.984375 -15.0625 C 7.796875 -15.0625 8.550781 -14.859375 9.25 -14.453125 C 9.945312 -14.046875 10.507812 -13.476562 10.9375 -12.75 C 11.375 -12.03125 11.59375 -11.191406 11.59375 -10.234375 C 11.59375 -9.390625 11.4375 -8.644531 11.125 -8 C 10.8125 -7.351562 10.394531 -6.820312 9.875 -6.40625 C 9.363281 -5.988281 8.789062 -5.695312 8.15625 -5.53125 L 12.46875 0 L 8.265625 0 L 4.671875 -5.390625 Z M 6.421875 -12.453125 L 4.65625 -12.453125 L 4.65625 -8 L 6.421875 -8 C 6.910156 -8 7.363281 -8.191406 7.78125 -8.578125 C 8.207031 -8.960938 8.421875 -9.515625 8.421875 -10.234375 C 8.421875 -10.929688 8.207031 -11.472656 7.78125 -11.859375 C 7.363281 -12.253906 6.910156 -12.453125 6.421875 -12.453125 Z M 6.421875 -12.453125 "/></g></g></g></svg>