<svg xmlns="http://www.w3.org/2000/svg" xmlns:xlink="http://www.w3.org/1999/xlink" width="500" zoomAndPan="magnify" viewBox="0 0 375 374.999991" height="500" preserveAspectRatio="xMidYMid meet" version="1.0"><defs><clipPath id="c66121542f"><path d="M 5.597656 21.140625 L 338.050781 21.140625 L 338.050781 353.59375 L 5.597656 353.59375 Z M 5.597656 21.140625 " clip-rule="nonzero"/></clipPath><clipPath id="2cbbf488ae"><path d="M 220 49 L 364 49 L 364 292 L 220 292 Z M 220 49 " clip-rule="nonzero"/></clipPath><clipPath id="28545db214"><path d="M 369.398438 287.679688 L 226.804688 291.203125 L 220.894531 52.082031 L 363.488281 48.558594 Z M 369.398438 287.679688 " clip-rule="nonzero"/></clipPath><clipPath id="0ea9978d95"><path d="M 226.410156 291.214844 L 369.003906 287.6875 L 363.097656 48.570312 L 220.5 52.09375 Z M 226.410156 291.214844 " clip-rule="nonzero"/></clipPath><clipPath id="aace76dae0"><path d="M 104.359375 80.898438 L 313.929688 80.898438 L 313.929688 258.648438 L 104.359375 258.648438 Z M 104.359375 80.898438 " clip-rule="nonzero"/></clipPath></defs><g clip-path="url(#c66121542f)"><path fill="#0080ff" d="M 338.308594 187.496094 C 338.308594 190.21875 338.242188 192.9375 338.109375 195.660156 C 337.976562 198.378906 337.773438 201.09375 337.507812 203.800781 C 337.242188 206.511719 336.910156 209.210938 336.507812 211.90625 C 336.109375 214.597656 335.644531 217.28125 335.113281 219.949219 C 334.582031 222.621094 333.984375 225.277344 333.324219 227.917969 C 332.664062 230.558594 331.9375 233.179688 331.144531 235.785156 C 330.355469 238.390625 329.503906 240.976562 328.585938 243.539062 C 327.667969 246.101562 326.6875 248.640625 325.644531 251.15625 C 324.605469 253.671875 323.5 256.160156 322.335938 258.621094 C 321.171875 261.082031 319.949219 263.515625 318.667969 265.914062 C 317.382812 268.316406 316.042969 270.683594 314.640625 273.019531 C 313.242188 275.355469 311.785156 277.65625 310.273438 279.917969 C 308.761719 282.183594 307.195312 284.40625 305.570312 286.59375 C 303.949219 288.78125 302.273438 290.925781 300.546875 293.03125 C 298.820312 295.136719 297.042969 297.195312 295.214844 299.214844 C 293.386719 301.230469 291.507812 303.203125 289.585938 305.128906 C 287.660156 307.050781 285.6875 308.929688 283.671875 310.757812 C 281.652344 312.585938 279.59375 314.363281 277.488281 316.089844 C 275.382812 317.816406 273.238281 319.492188 271.050781 321.113281 C 268.863281 322.734375 266.640625 324.304688 264.375 325.816406 C 262.113281 327.328125 259.8125 328.785156 257.476562 330.183594 C 255.140625 331.582031 252.773438 332.925781 250.371094 334.207031 C 247.972656 335.492188 245.539062 336.714844 243.078125 337.878906 C 240.617188 339.042969 238.128906 340.148438 235.613281 341.1875 C 233.097656 342.230469 230.558594 343.210938 227.996094 344.128906 C 225.433594 345.042969 222.847656 345.898438 220.242188 346.6875 C 217.636719 347.480469 215.015625 348.207031 212.375 348.867188 C 209.734375 349.527344 207.078125 350.125 204.40625 350.65625 C 201.738281 351.1875 199.054688 351.652344 196.363281 352.050781 C 193.667969 352.449219 190.96875 352.785156 188.257812 353.050781 C 185.550781 353.316406 182.835938 353.519531 180.117188 353.652344 C 177.394531 353.785156 174.675781 353.851562 171.953125 353.851562 C 169.230469 353.851562 166.507812 353.785156 163.789062 353.652344 C 161.070312 353.519531 158.355469 353.316406 155.648438 353.050781 C 152.9375 352.785156 150.234375 352.449219 147.542969 352.050781 C 144.851562 351.652344 142.167969 351.1875 139.5 350.65625 C 136.828125 350.125 134.171875 349.527344 131.53125 348.867188 C 128.890625 348.207031 126.265625 347.480469 123.660156 346.6875 C 121.054688 345.898438 118.472656 345.042969 115.910156 344.128906 C 113.34375 343.210938 110.804688 342.230469 108.289062 341.1875 C 105.777344 340.148438 103.289062 339.042969 100.824219 337.878906 C 98.363281 336.714844 95.933594 335.492188 93.53125 334.207031 C 91.132812 332.925781 88.761719 331.585938 86.429688 330.183594 C 84.09375 328.785156 81.792969 327.328125 79.53125 325.816406 C 77.265625 324.304688 75.039062 322.734375 72.855469 321.113281 C 70.667969 319.492188 68.523438 317.816406 66.417969 316.089844 C 64.3125 314.363281 62.25 312.585938 60.234375 310.757812 C 58.21875 308.929688 56.246094 307.050781 54.320312 305.128906 C 52.394531 303.203125 50.519531 301.230469 48.691406 299.214844 C 46.863281 297.195312 45.085938 295.136719 43.355469 293.03125 C 41.628906 290.925781 39.957031 288.78125 38.332031 286.59375 C 36.710938 284.40625 35.144531 282.183594 33.632812 279.917969 C 32.121094 277.65625 30.664062 275.355469 29.265625 273.019531 C 27.863281 270.683594 26.523438 268.316406 25.238281 265.914062 C 23.957031 263.515625 22.730469 261.082031 21.566406 258.621094 C 20.402344 256.160156 19.300781 253.671875 18.257812 251.15625 C 17.21875 248.640625 16.238281 246.101562 15.320312 243.539062 C 14.402344 240.976562 13.550781 238.390625 12.757812 235.785156 C 11.96875 233.179688 11.242188 230.558594 10.582031 227.917969 C 9.921875 225.277344 9.324219 222.621094 8.792969 219.949219 C 8.261719 217.28125 7.796875 214.597656 7.398438 211.90625 C 6.996094 209.210938 6.664062 206.511719 6.398438 203.800781 C 6.128906 201.09375 5.929688 198.378906 5.796875 195.660156 C 5.664062 192.9375 5.597656 190.21875 5.597656 187.496094 C 5.597656 184.773438 5.664062 182.050781 5.796875 179.332031 C 5.929688 176.613281 6.128906 173.898438 6.398438 171.191406 C 6.664062 168.480469 6.996094 165.777344 7.398438 163.085938 C 7.796875 160.394531 8.261719 157.710938 8.792969 155.039062 C 9.324219 152.371094 9.921875 149.714844 10.582031 147.074219 C 11.242188 144.433594 11.96875 141.808594 12.757812 139.203125 C 13.550781 136.597656 14.402344 134.015625 15.320312 131.453125 C 16.238281 128.886719 17.21875 126.347656 18.257812 123.832031 C 19.300781 121.316406 20.402344 118.828125 21.566406 116.367188 C 22.730469 113.90625 23.957031 111.476562 25.238281 109.074219 C 26.523438 106.675781 27.863281 104.304688 29.265625 101.972656 C 30.664062 99.636719 32.121094 97.335938 33.632812 95.074219 C 35.144531 92.808594 36.710938 90.582031 38.332031 88.398438 C 39.957031 86.210938 41.628906 84.066406 43.355469 81.960938 C 45.085938 79.855469 46.863281 77.792969 48.691406 75.777344 C 50.519531 73.761719 52.394531 71.789062 54.320312 69.863281 C 56.246094 67.9375 58.21875 66.0625 60.234375 64.234375 C 62.25 62.40625 64.3125 60.628906 66.417969 58.898438 C 68.523438 57.171875 70.667969 55.5 72.855469 53.875 C 75.039062 52.253906 77.265625 50.6875 79.53125 49.175781 C 81.792969 47.664062 84.09375 46.207031 86.429688 44.808594 C 88.761719 43.40625 91.132812 42.066406 93.53125 40.78125 C 95.933594 39.5 98.363281 38.273438 100.824219 37.109375 C 103.289062 35.945312 105.777344 34.84375 108.289062 33.800781 C 110.804688 32.761719 113.34375 31.78125 115.910156 30.863281 C 118.472656 29.945312 121.054688 29.09375 123.660156 28.300781 C 126.265625 27.511719 128.890625 26.785156 131.53125 26.125 C 134.171875 25.460938 136.828125 24.867188 139.5 24.335938 C 142.167969 23.804688 144.851562 23.339844 147.542969 22.941406 C 150.234375 22.539062 152.9375 22.207031 155.648438 21.941406 C 158.355469 21.671875 161.070312 21.472656 163.789062 21.339844 C 166.507812 21.207031 169.230469 21.140625 171.953125 21.140625 C 174.675781 21.140625 177.394531 21.207031 180.117188 21.339844 C 182.835938 21.472656 185.550781 21.671875 188.257812 21.941406 C 190.96875 22.207031 193.667969 22.539062 196.363281 22.941406 C 199.054688 23.339844 201.738281 23.804688 204.40625 24.335938 C 207.078125 24.867188 209.734375 25.460938 212.375 26.125 C 215.015625 26.785156 217.636719 27.511719 220.242188 28.300781 C 222.847656 29.09375 225.433594 29.945312 227.996094 30.863281 C 230.558594 31.78125 233.097656 32.761719 235.613281 33.800781 C 238.128906 34.84375 240.617188 35.945312 243.078125 37.109375 C 245.539062 38.273438 247.972656 39.5 250.371094 40.78125 C 252.773438 42.066406 255.140625 43.40625 257.476562 44.808594 C 259.8125 46.207031 262.113281 47.664062 264.375 49.175781 C 266.640625 50.6875 268.863281 52.253906 271.050781 53.875 C 273.238281 55.5 275.382812 57.171875 277.488281 58.898438 C 279.59375 60.628906 281.652344 62.40625 283.671875 64.234375 C 285.6875 66.0625 287.660156 67.9375 289.585938 69.863281 C 291.507812 71.789062 293.386719 73.761719 295.214844 75.777344 C 297.042969 77.792969 298.820312 79.855469 300.546875 81.960938 C 302.273438 84.066406 303.949219 86.210938 305.570312 88.398438 C 307.195312 90.582031 308.761719 92.808594 310.273438 95.074219 C 311.785156 97.335938 313.242188 99.636719 314.640625 101.972656 C 316.042969 104.304688 317.382812 106.675781 318.667969 109.074219 C 319.949219 111.476562 321.171875 113.90625 322.335938 116.367188 C 323.5 118.828125 324.605469 121.316406 325.644531 123.832031 C 326.6875 126.347656 327.667969 128.886719 328.585938 131.453125 C 329.503906 134.015625 330.355469 136.597656 331.144531 139.203125 C 331.9375 141.808594 332.664062 144.433594 333.324219 147.074219 C 333.984375 149.714844 334.582031 152.371094 335.113281 155.039062 C 335.644531 157.710938 336.109375 160.394531 336.507812 163.085938 C 336.910156 165.777344 337.242188 168.480469 337.507812 171.191406 C 337.773438 173.898438 337.976562 176.613281 338.109375 179.332031 C 338.242188 182.050781 338.308594 184.773438 338.308594 187.496094 Z M 338.308594 187.496094 " fill-opacity="1" fill-rule="nonzero"/></g><g clip-path="url(#2cbbf488ae)"><g clip-path="url(#28545db214)"><g clip-path="url(#0ea9978d95)"><path fill="#0080ff" d="M 226.402344 291.109375 L 220.574219 52.515625 C 268.21875 51.410156 315.863281 50.304688 363.507812 49.195312 C 317.804688 129.832031 272.105469 210.46875 226.402344 291.109375 " fill-opacity="1" fill-rule="nonzero"/></g></g></g><g clip-path="url(#aace76dae0)"><path fill="#ffffff" d="M 104.359375 184.246094 L 128.523438 152.679688 L 159.699219 198.664062 C 159.699219 198.664062 209.191406 102.410156 314.410156 80.976562 C 267.136719 104.300781 183.496094 197.804688 169.050781 259.070312 C 128.914062 206.070312 104.359375 184.246094 104.359375 184.246094 " fill-opacity="1" fill-rule="nonzero"/></g></svg>