<svg fill="#FFFFFF" xmlns="http://www.w3.org/2000/svg"  viewBox="0 0 48 48" width="48px" height="48px"><path d="M 21 2 C 19.343 2 18 3.343 18 5 L 18 7 L 10 7 C 7.791 7 6 8.791 6 11 L 6 12 L 38 12 C 40.209 12 42 10.209 42 8 L 42 7 L 30 7 L 30 2 L 21 2 z M 39 14.869141 C 38.68 14.959141 38.35 15 38 15 L 9 15 L 9 44 L 35 44 C 37.21 44 39 42.21 39 40 L 39 14.869141 z M 16 19 C 17.105 19 18 19.895 18 21 L 18 40 L 14 40 L 14 21 C 14 19.895 14.895 19 16 19 z M 24 19 C 25.105 19 26 19.895 26 21 L 26 40 L 22 40 L 22 21 C 22 19.895 22.895 19 24 19 z M 32 19 C 33.105 19 34 19.895 34 21 L 34 40 L 30 40 L 30 21 C 30 19.895 30.895 19 32 19 z"/></svg>